<?xml version="1.0" standalone="no"?>
<!DOCTYPE svg PUBLIC "-//W3C//DTD SVG 20010904//EN"
 "http://www.w3.org/TR/2001/REC-SVG-20010904/DTD/svg10.dtd">
<svg version="1.0" xmlns="http://www.w3.org/2000/svg"
 width="169.000000pt" height="64.000000pt" viewBox="0 0 169.000000 64.000000"
 preserveAspectRatio="xMidYMid meet">
<metadata>
Created by potrace 1.13, written by Peter Selinger 2001-2015
</metadata>
<g transform="translate(0.000000,64.000000) scale(0.100000,-0.100000)"
stroke="none">
<path d="M378 614 c-16 -8 -39 -36 -52 -62 -21 -42 -67 -186 -96 -299 -6 -24
-15 -43 -19 -43 -5 0 -28 48 -51 108 -23 59 -49 115 -58 125 -29 33 -72 15
-72 -31 0 -41 148 -377 172 -393 18 -12 49 3 62 30 8 14 30 91 51 171 20 80
57 197 81 261 49 130 50 134 28 143 -19 7 -13 8 -46 -10z"/>
<path d="M818 382 c-12 -15 -31 -39 -41 -52 -12 -17 -20 -21 -23 -12 -3 6 -19
12 -35 12 -28 0 -29 -2 -29 -44 0 -41 -4 -48 -56 -95 -60 -55 -93 -69 -132
-55 -38 13 -37 31 2 44 82 27 117 134 60 179 -73 58 -176 -12 -195 -132 -7
-44 -5 -55 18 -94 29 -50 66 -73 118 -73 38 0 122 38 144 64 21 25 31 19 29
-16 -3 -29 0 -33 22 -36 23 -3 30 8 83 119 32 67 62 118 66 113 5 -5 14 -45
20 -89 19 -122 30 -154 58 -161 35 -9 43 5 33 56 -5 25 -18 90 -29 145 -10 55
-24 112 -30 128 -14 36 -51 36 -83 -1z"/>
<path d="M1465 357 c-91 -49 -139 -106 -170 -202 -6 -18 -7 -18 -18 5 -12 25
-65 51 -142 70 -43 10 -84 35 -74 44 3 3 30 10 59 16 63 12 64 12 55 39 -18
59 -168 16 -196 -56 -18 -47 17 -73 144 -108 36 -10 57 -21 54 -28 -6 -18 -80
-20 -121 -3 -34 14 -37 14 -46 -5 -28 -52 36 -86 143 -75 68 7 115 29 126 59
9 22 9 22 19 -4 27 -69 113 -47 180 46 l39 54 37 -75 c38 -75 68 -103 100 -91
24 9 19 35 -14 87 -21 32 -38 81 -53 151 -26 123 -31 126 -122 76z"/>
</g>
</svg>
